<svg width="110" height="33" viewBox="0 0 110 33" fill="none" xmlns="http://www.w3.org/2000/svg">
<path fill-rule="evenodd" clip-rule="evenodd" d="M105.04 14.9099L58.8 32.47C57.8438 32.8362 56.8229 33.0029 55.8 32.96C54.6373 33.0725 53.4643 32.9186 52.37 32.51L5.96988 15.03C5.02327 14.6756 4.1559 14.1377 3.41764 13.4473C2.67938 12.7569 2.08485 11.9276 1.66788 11.0068C1.25092 10.0861 1.01983 9.09183 0.98795 8.08154C0.956072 7.07125 1.12401 6.06462 1.48209 5.11938C1.84018 4.17415 2.38135 3.30907 3.07462 2.57349C3.76789 1.8379 4.5995 1.2464 5.52189 0.833008C6.44428 0.419613 7.43922 0.192272 8.44962 0.164307C9.46002 0.136341 10.466 0.30818 11.4098 0.669922L55.4599 17.27L99.62 0.5C101.518 -0.162544 103.6 -0.0564707 105.421 0.79541C107.241 1.64729 108.657 3.17748 109.365 5.05908C110.072 6.94068 110.016 9.02427 109.208 10.865C108.4 12.7057 106.904 14.1574 105.04 14.9099Z" fill="#AEB8C4"/>
</svg>
