<svg width="47" height="80" viewBox="0 0 47 80" fill="none" xmlns="http://www.w3.org/2000/svg">
<path fill-rule="evenodd" clip-rule="evenodd" d="M44.9299 67.92L17.0701 40.01L44.9299 12.09C46.2551 10.7593 46.999 8.95787 46.999 7.07996C46.999 5.20204 46.2551 3.4006 44.9299 2.06995C43.6035 0.744582 41.8051 0.00012207 39.9299 0.00012207C38.0548 0.00012207 36.2564 0.744582 34.9299 2.06995L2.07007 35C0.744583 36.3284 0 38.1284 0 40.005C0 41.8816 0.744583 43.6816 2.07007 45.01L34.9299 77.9301C35.5855 78.5885 36.3649 79.1108 37.2229 79.4673C38.0809 79.8238 39.0008 80.0073 39.9299 80.0073C40.8591 80.0073 41.7792 79.8238 42.6372 79.4673C43.4952 79.1108 44.2743 78.5885 44.9299 77.9301C46.2554 76.6016 47 74.8017 47 72.925C47 71.0484 46.2554 69.2485 44.9299 67.92Z" fill="#AEB8C4"/>
</svg>
