<svg width="108" height="33" viewBox="0 0 108 33" fill="none" xmlns="http://www.w3.org/2000/svg">
<path fill-rule="evenodd" clip-rule="evenodd" d="M103.221 18.1265L57.352 0.526931C56.4035 0.159876 55.3908 -0.00724195 54.376 0.0358384C53.2227 -0.0769376 52.0591 0.0772555 50.9736 0.486802L4.94575 18.0061C4.00673 18.3613 3.14632 18.9005 2.41398 19.5925C1.68164 20.2844 1.09188 21.1155 0.678265 22.0384C0.264647 22.9612 0.0354108 23.9577 0.00378862 24.9702C-0.0278336 25.9828 0.138753 26.9917 0.493965 27.9391C0.849176 28.8864 1.38601 29.7535 2.07372 30.4907C2.76142 31.2279 3.58636 31.8208 4.50135 32.2351C5.41634 32.6494 6.40329 32.8773 7.40559 32.9053C8.40789 32.9333 9.40578 32.7611 10.342 32.3986L54.0387 15.7611L97.8445 32.5689C99.7273 33.2329 101.792 33.1266 103.599 32.2728C105.405 31.419 106.809 29.8853 107.511 27.9995C108.213 26.1137 108.157 24.0254 107.356 22.1805C106.554 20.3357 105.07 18.8807 103.221 18.1265Z" fill="#AEB8C4"/>
</svg>
