<svg width="162" height="162" viewBox="0 0 162 162" fill="none" xmlns="http://www.w3.org/2000/svg">
<path d="M81 161.095C125.288 161.095 161.19 125.193 161.19 80.905C161.19 36.6173 125.288 0.714966 81 0.714966C36.7123 0.714966 0.810059 36.6173 0.810059 80.905C0.810059 125.193 36.7123 161.095 81 161.095Z" fill="#FA9C21"/>
<path fill-rule="evenodd" clip-rule="evenodd" d="M100.27 78.1C103.001 74.9182 104.502 70.8632 104.5 66.67C104.478 62.7092 103.139 58.868 100.695 55.7509C98.2515 52.6337 94.841 50.4172 91 49.45V44.4399C91 43.2465 90.5258 42.102 89.6819 41.2581C88.838 40.4141 87.6935 39.9399 86.5 39.9399C85.3065 39.9399 84.162 40.4141 83.3181 41.2581C82.4742 42.102 82 43.2465 82 44.4399V48.89H73V44.4399C73 43.2465 72.5258 42.102 71.6819 41.2581C70.838 40.4141 69.6935 39.9399 68.5 39.9399C67.3065 39.9399 66.162 40.4141 65.3181 41.2581C64.4742 42.102 64 43.2465 64 44.4399V48.89H59.5C58.3149 48.8834 57.1754 49.3471 56.3318 50.1794C55.4882 51.0118 55.0093 52.1448 55 53.33C55 55.78 57.52 58 60 58H64V102H59C56.53 102 55 104.21 55 106.67C55.0093 107.855 55.4882 108.988 56.3318 109.821C57.1754 110.653 58.3149 111.117 59.5 111.11H64V115.56C64 116.754 64.4742 117.898 65.3181 118.742C66.162 119.586 67.3065 120.06 68.5 120.06C69.6935 120.06 70.838 119.586 71.6819 118.742C72.5258 117.898 73 116.754 73 115.56V111.11H82V115.56C82 116.754 82.4742 117.898 83.3181 118.742C84.162 119.586 85.3065 120.06 86.5 120.06C87.6935 120.06 88.838 119.586 89.6819 118.742C90.5258 117.898 91 116.754 91 115.56V111.11C95.7431 111.134 100.302 109.275 103.676 105.942C107.051 102.609 108.965 98.073 109 93.33C108.992 90.252 108.183 87.2292 106.652 84.5588C105.121 81.8885 102.922 79.6626 100.27 78.1ZM73 58H86.8C88.0065 57.9598 89.2087 58.1626 90.3352 58.5966C91.4617 59.0305 92.4892 59.6866 93.3569 60.5259C94.2246 61.3651 94.9148 62.3703 95.386 63.4817C95.8572 64.5931 96.0999 65.7878 96.0999 66.995C96.0999 68.2021 95.8572 69.3969 95.386 70.5083C94.9148 71.6197 94.2246 72.6249 93.3569 73.4641C92.4892 74.3033 91.4617 74.9595 90.3352 75.3934C89.2087 75.8274 88.0065 76.0302 86.8 75.99H73V58ZM91 102H73V84.01H91C92.2065 83.9698 93.4087 84.1726 94.5352 84.6066C95.6616 85.0405 96.6892 85.6967 97.5569 86.5359C98.4246 87.3751 99.1147 88.3803 99.5859 89.4917C100.057 90.6031 100.3 91.7979 100.3 93.005C100.3 94.2122 100.057 95.4069 99.5859 96.5183C99.1147 97.6297 98.4246 98.6349 97.5569 99.4741C96.6892 100.313 95.6616 100.97 94.5352 101.403C93.4087 101.837 92.2065 102.04 91 102Z" fill="white" stroke="white"/>
</svg>
