<svg width="162" height="162" viewBox="0 0 162 162" fill="none" xmlns="http://www.w3.org/2000/svg">
<path d="M81 161.095C125.288 161.095 161.19 125.193 161.19 80.905C161.19 36.6173 125.288 0.715088 81 0.715088C36.7123 0.715088 0.810059 36.6173 0.810059 80.905C0.810059 125.193 36.7123 161.095 81 161.095Z" fill="url(#paint0_linear_3_101)"/>
<path d="M96.5991 58.25C97.0109 58.9131 97.2728 59.6582 97.3664 60.4331C97.4601 61.208 97.3833 61.9938 97.1413 62.7358C96.8994 63.4779 96.4982 64.1583 95.9658 64.729C95.4334 65.2998 94.7828 65.7471 94.0593 66.04C92.893 66.5221 91.5939 66.5779 90.3906 66.1975C89.1873 65.8171 88.1565 65.0248 87.4792 63.96C85.6892 61.14 83.3793 59.73 80.5293 59.73C79.6419 59.6907 78.7558 59.8348 77.9265 60.1531C77.0972 60.4714 76.3424 60.9571 75.7092 61.5801C75.1208 62.1619 74.6569 62.8573 74.3457 63.624C74.0345 64.3908 73.8826 65.2127 73.8992 66.04C73.852 66.8125 73.9858 67.5852 74.2895 68.2969C74.5933 69.0086 75.0588 69.6398 75.6492 70.1401C76.8092 71.0901 79.3058 72.2699 83.1392 73.6799C86.5475 74.8615 89.855 76.3163 93.0293 78.03C95.4032 79.3808 97.3794 81.3329 98.7593 83.6899C100.229 86.2592 100.968 89.1812 100.899 92.1401C101.048 96.6719 99.4683 101.091 96.4792 104.5C93.9118 107.382 90.348 109.226 85.7877 110.034C85.8878 110.451 85.9389 110.879 85.9392 111.31V113.3C85.9392 114.756 85.3609 116.153 84.3313 117.182C83.3017 118.212 81.9052 118.79 80.4492 118.79C78.9932 118.79 77.5967 118.212 76.5671 117.182C75.5376 116.153 74.9592 114.756 74.9592 113.3V111.31C74.9595 110.923 75.0008 110.537 75.082 110.16C68.778 109.119 64.2639 105.832 61.5393 100.3C61.1919 99.5841 61.0077 98.7999 61.0002 98.0042C60.9928 97.2084 61.1622 96.4208 61.4961 95.6985C61.83 94.9761 62.3202 94.337 62.9311 93.8272C63.5421 93.3173 64.2588 92.9493 65.0293 92.75L65.4492 92.6502C66.6502 92.3313 67.9248 92.4403 69.0542 92.9585C70.1836 93.4767 71.0975 94.3716 71.6392 95.49C73.2892 98.9 76.2326 100.607 80.4692 100.61C83.1392 100.61 85.1058 99.9501 86.3691 98.6301C86.9815 97.9962 87.4628 97.2475 87.7854 96.4272C88.108 95.607 88.2657 94.7313 88.2493 93.8501C88.3044 93.0205 88.1629 92.1894 87.8362 91.4248C87.5095 90.6602 87.0067 89.9836 86.3691 89.45C85.1091 88.45 82.3126 87.1835 77.9792 85.6502C74.8112 84.626 71.7554 83.2824 68.8591 81.6401C66.6291 80.2874 64.7892 78.3783 63.5193 76.1001C62.1152 73.5593 61.4079 70.6923 61.4692 67.79C61.4368 63.7592 62.7258 59.8288 65.1392 56.6001C67.3006 53.6559 70.5778 51.7296 74.9705 50.8214C74.963 50.7047 74.9592 50.5875 74.9592 50.47V48.48C74.9597 47.7596 75.1022 47.0466 75.3784 46.3814C75.6546 45.7161 76.0593 45.1117 76.5691 44.6028C77.0789 44.0939 77.6838 43.6903 78.3496 43.4153C79.0154 43.1403 79.7289 42.9992 80.4492 43C81.1695 42.9992 81.883 43.1403 82.5488 43.4153C83.2146 43.6903 83.8195 44.0939 84.3293 44.6028C84.8392 45.1117 85.2438 45.7161 85.52 46.3814C85.7962 47.0466 85.9387 47.7596 85.9392 48.48V50.47C85.9392 50.6128 85.9336 50.755 85.9226 50.8964C90.6029 51.9238 94.1617 54.375 96.5991 58.25Z" fill="white"/>
<defs>
<linearGradient id="paint0_linear_3_101" x1="1" y1="0.999997" x2="330" y2="272" gradientUnits="userSpaceOnUse">
<stop stop-color="#1D72F1"/>
<stop offset="0.795" stop-color="#17C8FC"/>
</linearGradient>
</defs>
</svg>
