<svg width="88" height="88" viewBox="0 0 88 88" fill="none" xmlns="http://www.w3.org/2000/svg">
<path fill-rule="evenodd" clip-rule="evenodd" d="M44 87.99C35.2976 87.99 26.7907 85.4095 19.5549 80.5747C12.3192 75.7399 6.67962 68.8681 3.34936 60.8281C0.0191042 52.7882 -0.852296 43.9412 0.845454 35.406C2.5432 26.8708 6.73369 19.0307 12.8872 12.8772C19.0407 6.72368 26.8808 2.53319 35.416 0.835444C43.9512 -0.862306 52.7982 0.00909448 60.8381 3.33935C68.8781 6.66961 75.7499 12.3092 80.5847 19.5449C85.4195 26.7807 88 35.2876 88 43.99C88.0168 49.7729 86.8901 55.502 84.6848 60.8479C82.4795 66.1938 79.2393 71.051 75.1501 75.1401C71.061 79.2292 66.2038 82.4695 60.8579 84.6748C55.512 86.8801 49.7829 88.0067 44 87.99ZM65.4099 20.79C65.2399 20.79 65.0599 20.96 64.8799 20.96L32.76 31.6699C32.5065 31.747 32.2756 31.8848 32.0874 32.0713C31.8992 32.2577 31.7594 32.4873 31.6799 32.74L20.98 64.8701C20.9113 64.9387 20.8593 65.0221 20.8281 65.114C20.7969 65.2059 20.7873 65.3037 20.8 65.3999C20.7851 65.638 20.8208 65.8766 20.9048 66.0998C20.9888 66.3231 21.1191 66.5261 21.2873 66.6953C21.4556 66.8645 21.6578 66.996 21.8806 67.0813C22.1034 67.1666 22.3419 67.2036 22.5801 67.1899C22.7601 67.1899 22.9401 67.01 23.1201 67.01L55.24 56.3C55.4922 56.2227 55.7217 56.0847 55.9082 55.8982C56.0947 55.7117 56.2327 55.4822 56.3101 55.23L67.02 23.1101C67.0883 23.0392 67.14 22.9538 67.1711 22.8603C67.2023 22.7669 67.2121 22.6678 67.1999 22.5701C67.2136 22.3319 67.1766 22.0934 67.0913 21.8706C67.006 21.6478 66.8745 21.4456 66.7053 21.2773C66.5361 21.1091 66.3331 20.9788 66.1099 20.8948C65.8866 20.8107 65.648 20.7751 65.4099 20.79ZM44.8 49.5901C43.5342 49.5901 42.2969 49.2147 41.2444 48.5115C40.1919 47.8082 39.3716 46.8086 38.8872 45.6392C38.4028 44.4697 38.276 43.1829 38.5229 41.9414C38.7699 40.6999 39.3794 39.5596 40.2744 38.6645C41.1695 37.7695 42.31 37.16 43.5515 36.9131C44.793 36.6661 46.0798 36.7927 47.2493 37.2771C48.4187 37.7615 49.4181 38.5818 50.1213 39.6343C50.8246 40.6867 51.1999 41.9241 51.1999 43.1899C51.1999 44.8873 50.5257 46.5153 49.3254 47.7156C48.1252 48.9158 46.4974 49.5901 44.8 49.5901Z" fill="#AEB8C4"/>
</svg>
