<svg width="17" height="81" viewBox="0 0 17 81" fill="none" xmlns="http://www.w3.org/2000/svg">
<path fill-rule="evenodd" clip-rule="evenodd" d="M16.9999 8.1899C17.0629 9.88453 16.6179 11.5593 15.7221 12.9992C14.8263 14.4391 13.5206 15.5784 11.9725 16.2707C10.4245 16.9631 8.705 17.177 7.03455 16.8848C5.36411 16.5927 3.8192 15.8079 2.59803 14.6313C1.37686 13.4547 0.534997 11.9399 0.181036 10.2815C-0.172924 8.62301 -0.0231763 6.8966 0.611212 5.32394C1.2456 3.75127 2.33596 2.40406 3.74158 1.45541C5.14721 0.506753 6.80409 -6.28784e-05 8.49988 -3.7313e-05C10.7125 -0.0391329 12.8501 0.801257 14.4437 2.33675C16.0373 3.87225 16.9568 5.97732 16.9999 8.1899ZM16.9999 39.68C17.0649 41.375 16.6215 43.0506 15.7269 44.4918C14.8324 45.9329 13.5276 47.0738 11.9799 47.7677C10.4321 48.4616 8.71197 48.6769 7.0409 48.3859C5.36983 48.095 3.82412 47.311 2.60193 46.1348C1.37975 44.9587 0.537326 43.444 0.182501 41.7854C-0.172323 40.1267 -0.0233029 38.3998 0.610724 36.8265C1.24475 35.2532 2.33482 33.9055 3.74061 32.9564C5.14639 32.0072 6.80368 31.5 8.49988 31.5C10.7113 31.4592 12.8486 32.2978 14.4423 33.8315C16.0359 35.3652 16.9557 37.4687 16.9999 39.68ZM16.9999 71.81C17.0629 73.5046 16.6179 75.1793 15.7221 76.6192C14.8263 78.0591 13.5206 79.1984 11.9725 79.8907C10.4245 80.5831 8.705 80.797 7.03455 80.5048C5.36411 80.2127 3.8192 79.4279 2.59803 78.2513C1.37686 77.0747 0.534997 75.5599 0.181036 73.9015C-0.172924 72.243 -0.0231763 70.5166 0.611212 68.9439C1.2456 67.3713 2.33596 66.0241 3.74158 65.0754C5.14721 64.1267 6.80409 63.6199 8.49988 63.62C10.7125 63.5809 12.8501 64.4212 14.4437 65.9567C16.0373 67.4922 16.9568 69.5974 16.9999 71.81Z" fill="#AEB8C4"/>
</svg>
