<svg width="72" height="87" viewBox="0 0 72 87" fill="none" xmlns="http://www.w3.org/2000/svg">
<path fill-rule="evenodd" clip-rule="evenodd" d="M70.63 65.46C70.2661 66.138 69.7483 66.7212 69.1178 67.1624C68.4872 67.6035 67.7618 67.8905 67.0001 68H5.00008C4.23702 67.8907 3.51017 67.604 2.87801 67.1628C2.24585 66.7217 1.72609 66.1384 1.36019 65.46C-2.16981 58.72 1.98005 54.99 4.22005 52.98C5.07678 52.3025 5.81946 51.4924 6.42 50.5801C6.46 50.5201 6.48009 50.4699 6.51009 50.4299C8.10009 47.8099 8.69011 41.4699 9.03011 37.6799C9.08011 37.1199 9.13001 36.5801 9.18001 36.0801C9.19001 36.0401 9.19003 35.9899 9.20003 35.9399C9.98003 30.3199 11.92 22.2501 16.71 15.6001C19.7074 11.2076 24.0855 7.94155 29.15 6.32007C29.285 4.59727 30.0648 2.98865 31.3336 1.81543C32.6024 0.642206 34.2671 -0.00952148 35.9952 -0.00952148C37.7233 -0.00952148 39.3878 0.642206 40.6566 1.81543C41.9254 2.98865 42.7051 4.59727 42.8402 6.32007C47.906 7.93893 52.2849 11.2055 55.2801 15.6001C60.0801 22.2501 62.0101 30.3199 62.7901 35.9199C62.7999 35.9728 62.8066 36.0264 62.8101 36.0801C62.8601 36.5801 62.91 37.1199 62.96 37.6799C63.31 41.4699 63.8901 47.8099 65.4801 50.4099C65.5201 50.4799 65.5502 50.5401 65.5802 50.5901C66.1809 51.4994 66.9236 52.3062 67.7801 52.98C70.0101 54.99 74.17 58.72 70.63 65.46ZM28.63 75.01H43.1102C43.3918 75.0043 43.6707 75.0637 43.9256 75.1833C44.1806 75.303 44.4047 75.4797 44.5802 75.7C44.7801 75.9898 44.9142 76.32 44.973 76.6672C45.0317 77.0145 45.0135 77.3704 44.92 77.71C44.91 77.74 44.91 77.7801 44.9 77.8C44.7201 80.0086 43.7263 82.0714 42.1112 83.5884C40.496 85.1053 38.3749 85.9682 36.1595 86.0093C33.9441 86.0504 31.7922 85.267 30.1219 83.811C28.4516 82.3551 27.3819 80.3302 27.1202 78.1299L27.1102 78.0701C26.9898 77.6608 26.955 77.2309 27.0084 76.8076C27.0617 76.3843 27.2018 75.9767 27.42 75.6101C27.5628 75.4247 27.7462 75.2741 27.9559 75.1702C28.1656 75.0662 28.3959 75.0115 28.63 75.01Z" fill="#AEB8C4"/>
</svg>
