<svg width="160" height="160" viewBox="0 0 160 160" fill="none" xmlns="http://www.w3.org/2000/svg">
<path d="M80 160C124.183 160 160 124.183 160 80C160 35.8172 124.183 0 80 0C35.8172 0 0 35.8172 0 80C0 124.183 35.8172 160 80 160Z" fill="url(#paint0_linear_3_102)"/>
<path d="M96.6499 57.45C97.0616 58.113 97.3236 58.8582 97.4172 59.6331C97.5109 60.4079 97.4341 61.1937 97.1921 61.9358C96.9502 62.6778 96.549 63.3582 96.0166 63.929C95.4842 64.4997 94.8335 64.9471 94.1101 65.24C92.9438 65.7221 91.6447 65.7778 90.4414 65.3975C89.2381 65.0171 88.2073 64.2248 87.53 63.1599C85.74 60.3399 83.4301 58.9299 80.5801 58.9299C79.6927 58.8906 78.8066 59.0347 77.9773 59.353C77.148 59.6713 76.3932 60.1571 75.76 60.78C75.1716 61.3618 74.7076 62.0572 74.3965 62.824C74.0853 63.5907 73.9334 64.4127 73.9499 65.24C73.9028 66.0124 74.0365 66.7851 74.3403 67.4968C74.6441 68.2086 75.1096 68.8398 75.6999 69.3401C76.8599 70.2901 79.3566 71.4699 83.1899 72.8799C86.5983 74.0614 89.9058 75.5162 93.0801 77.23C95.4539 78.5808 97.4302 80.5328 98.8101 82.8899C100.279 85.4592 101.019 88.3811 100.95 91.3401C101.099 95.8718 99.5191 100.291 96.53 103.7C93.9626 106.582 90.3988 108.426 85.8385 109.234C85.9386 109.651 85.9897 110.079 85.99 110.51V112.5C85.99 113.956 85.4116 115.353 84.3821 116.382C83.3525 117.412 81.956 117.99 80.5 117.99C79.044 117.99 77.6475 117.412 76.6179 116.382C75.5883 115.353 75.01 113.956 75.01 112.5V110.51C75.0103 110.123 75.0516 109.737 75.1327 109.36C68.8288 108.319 64.3147 105.032 61.5901 99.5C61.2427 98.784 61.0585 97.9999 61.051 97.2041C61.0436 96.4083 61.213 95.6208 61.5469 94.8984C61.8808 94.1761 62.3709 93.537 62.9819 93.0271C63.5929 92.5172 64.3096 92.1492 65.0801 91.95L65.5 91.8501C66.701 91.5313 67.9755 91.6403 69.105 92.1585C70.2344 92.6766 71.1483 93.5716 71.6899 94.6899C73.3399 98.0999 76.2833 99.8067 80.52 99.8101C83.19 99.8101 85.1566 99.1501 86.4199 97.8301C87.0323 97.1962 87.5136 96.4474 87.8362 95.6272C88.1588 94.807 88.3165 93.9313 88.3 93.0501C88.3552 92.2204 88.2136 91.3893 87.887 90.6248C87.5603 89.8602 87.0575 89.1835 86.4199 88.6499C85.1599 87.6499 82.3634 86.3834 78.03 84.8501C74.862 83.826 71.8061 82.4824 68.9099 80.8401C66.6799 79.4873 64.8399 77.5782 63.5701 75.3001C62.166 72.7593 61.4587 69.8923 61.52 66.99C61.4875 62.9591 62.7765 59.0287 65.1899 55.8001C67.3514 52.8558 70.6285 50.9295 75.0212 50.0213C75.0138 49.9047 75.01 49.7875 75.01 49.6699V47.6799C75.0105 46.9596 75.153 46.2466 75.4292 45.5813C75.7054 44.916 76.11 44.3116 76.6199 43.8027C77.1297 43.2938 77.7346 42.8902 78.4004 42.6152C79.0662 42.3402 79.7797 42.1992 80.5 42.2C81.2203 42.1992 81.9338 42.3402 82.5996 42.6152C83.2654 42.8902 83.8703 43.2938 84.3801 43.8027C84.8899 44.3116 85.2946 44.916 85.5708 45.5813C85.847 46.2466 85.9895 46.9596 85.99 47.6799V49.6699C85.99 49.8127 85.9844 49.955 85.9734 50.0964C90.6537 51.1238 94.2124 53.5749 96.6499 57.45Z" fill="white"/>
<defs>
<linearGradient id="paint0_linear_3_102" x1="80" y1="-50.5" x2="80" y2="217" gradientUnits="userSpaceOnUse">
<stop stop-color="#FF677C"/>
<stop offset="1" stop-color="#FB23A2"/>
</linearGradient>
</defs>
</svg>
