<svg width="89" height="89" viewBox="0 0 89 89" fill="none" xmlns="http://www.w3.org/2000/svg">
<path fill-rule="evenodd" clip-rule="evenodd" d="M89.0098 45C88.9681 43.3336 88.451 41.7138 87.519 40.3318C86.5871 38.9498 85.2793 37.8631 83.75 37.2C80.84 36.17 78.0202 33.6499 77.2002 31.6699C76.3802 29.6899 76.5899 25.8901 77.9199 23.1101C78.5748 21.5671 78.7539 19.8637 78.4341 18.2183C78.1142 16.5729 77.3103 15.0605 76.125 13.8752C74.9397 12.69 73.4271 11.8858 71.7817 11.5659C70.1363 11.2461 68.4331 11.4252 66.8901 12.0801C64.1001 13.4001 60.3198 13.62 58.3398 12.8C56.3598 11.98 53.8298 9.16 52.7998 6.25C52.1725 4.69355 51.0944 3.36013 49.7036 2.42114C48.3128 1.48216 46.6732 0.980469 44.9951 0.980469C43.317 0.980469 41.6769 1.48216 40.2861 2.42114C38.8953 3.36013 37.8172 4.69355 37.1899 6.25C36.1599 9.16 33.6402 11.98 31.6602 12.8C29.6802 13.62 25.8899 13.4001 23.1099 12.0801C21.5668 11.423 19.8628 11.2422 18.2163 11.5613C16.5698 11.8803 15.0565 12.6845 13.8706 13.8704C12.6847 15.0562 11.8806 16.5698 11.5615 18.2163C11.2425 19.8628 11.423 21.5671 12.0801 23.1101C13.4001 25.9001 13.61 29.6799 12.79 31.6599C11.97 33.6399 9.16 36.17 6.25 37.2C4.69353 37.8258 3.35965 38.9032 2.42041 40.2932C1.48117 41.6832 0.979492 43.3224 0.979492 45C0.979492 46.6776 1.48117 48.3168 2.42041 49.7068C3.35965 51.0968 4.69353 52.1742 6.25 52.8C9.16 53.83 11.97 56.3601 12.79 58.3401C13.61 60.3201 13.4001 64.0999 12.0801 66.8899C11.4252 68.4329 11.2461 70.1363 11.5659 71.7817C11.8858 73.4271 12.6897 74.9395 13.875 76.1248C15.0603 77.31 16.5729 78.1142 18.2183 78.4341C19.8637 78.7539 21.5669 78.5748 23.1099 77.9199C25.8999 76.5899 29.6702 76.38 31.6602 77.2C33.6502 78.02 36.1599 80.85 37.1899 83.75C37.8195 85.3041 38.8986 86.635 40.2891 87.572C41.6796 88.509 43.3184 89.0095 44.9951 89.0095C46.6719 89.0095 48.3102 88.509 49.7007 87.572C51.0912 86.635 52.1703 85.3041 52.7998 83.75C53.8298 80.85 56.3501 78.02 58.3301 77.2C60.3101 76.38 64.1001 76.5899 66.8901 77.9199C68.4331 78.5727 70.1354 78.7501 71.7798 78.4294C73.4241 78.1088 74.9355 77.3047 76.1201 76.1201C77.3047 74.9355 78.109 73.4241 78.4297 71.7798C78.7503 70.1354 78.5727 68.4328 77.9199 66.8899C76.5899 64.0999 76.3799 60.3201 77.1899 58.3401C77.9999 56.3601 80.84 53.83 83.75 52.8C85.2776 52.1345 86.584 51.0473 87.5156 49.6658C88.4473 48.2843 88.9653 46.6657 89.0098 45ZM45 61.1499C41.806 61.1529 38.683 60.2085 36.0259 58.436C33.3688 56.6636 31.2969 54.1428 30.0728 51.1926C28.8486 48.2425 28.5273 44.9955 29.1489 41.8625C29.7706 38.7296 31.3076 35.8515 33.5654 33.5923C35.8232 31.3331 38.7004 29.7943 41.833 29.1707C44.9656 28.547 48.2127 28.8666 51.1636 30.0889C54.1145 31.3112 56.6365 33.3813 58.4106 36.0374C60.1847 38.6934 61.1309 41.816 61.1299 45.01C61.1307 47.1289 60.714 49.2272 59.9038 51.1851C59.0936 53.143 57.906 54.9221 56.4082 56.4209C54.9104 57.9197 53.1317 59.1087 51.1743 59.9202C49.2169 60.7316 47.1189 61.1494 45 61.1499Z" fill="#AEB8C4"/>
</svg>
