<svg width="89" height="88" viewBox="0 0 89 88" fill="none" xmlns="http://www.w3.org/2000/svg">
<path fill-rule="evenodd" clip-rule="evenodd" d="M10.5 24.5H78.5C81.1522 24.5 83.6957 25.5536 85.571 27.429C87.4464 29.3043 88.5 31.8478 88.5 34.5V77.5C88.5 80.1522 87.4464 82.6957 85.571 84.571C83.6957 86.4464 81.1522 87.5 78.5 87.5H10.5C7.84784 87.5 5.30432 86.4464 3.42896 84.571C1.55359 82.6957 0.5 80.1522 0.5 77.5V34.5C0.5 31.8478 1.55359 29.3043 3.42896 27.429C5.30432 25.5536 7.84784 24.5 10.5 24.5ZM68.5 47.5C70.0823 47.5 71.629 47.9691 72.9446 48.8481C74.2602 49.7272 75.2856 50.9767 75.8911 52.4385C76.4966 53.9003 76.6549 55.5089 76.3462 57.0608C76.0375 58.6126 75.2756 60.0379 74.1567 61.1567C73.0379 62.2756 71.6126 63.0375 70.0608 63.3462C68.5089 63.6549 66.9003 63.4966 65.4385 62.8911C63.9767 62.2856 62.7272 61.2602 61.8481 59.9446C60.9691 58.629 60.5 57.0822 60.5 55.5C60.5 53.3783 61.343 51.3436 62.8433 49.8433C64.3436 48.343 66.3783 47.5 68.5 47.5ZM15 0.5H60C61.4587 0.5 62.8577 1.07939 63.8892 2.11084C64.9206 3.14229 65.5 4.54131 65.5 6V7C65.5 8.45869 64.9206 9.85771 63.8892 10.8892C62.8577 11.9206 61.4587 12.5 60 12.5H56.5H54C38.7696 12.5 30.2304 12.5 15 12.5C13.5413 12.5 12.1423 11.9206 11.1108 10.8892C10.0794 9.85771 9.5 8.45869 9.5 7V6C9.5 4.54131 10.0794 3.14229 11.1108 2.11084C12.1423 1.07939 13.5413 0.5 15 0.5Z" fill="#4C5968"/>
<path d="M31.5 0.5H10.5C4.97715 0.5 0.5 4.97715 0.5 10.5V32.5C0.5 38.0228 4.97715 42.5 10.5 42.5H28.5C33.4706 42.5 37.5 38.4706 37.5 33.5C37.5 28.5294 33.4706 24.5 28.5 24.5H19.5C16.1863 24.5 13.5 21.8137 13.5 18.5C13.5 15.1863 16.1863 12.5 19.5 12.5H31.5C34.8137 12.5 37.5 9.81371 37.5 6.5C37.5 3.18629 34.8137 0.5 31.5 0.5Z" fill="#4C5968"/>
</svg>
